<svg width="84" height="84" viewBox="0 0 84 84" fill="none" xmlns="http://www.w3.org/2000/svg">
<path d="M34.35 46.6125L41.9208 50.9833L49.7125 46.4833V37.875L41.8333 33.3333L34.35 38.0083V46.6125ZM26.0167 41.8V12.7417C18.2763 16.9788 12.5261 24.1056 10.0208 32.5667L26.0167 41.8ZM8.67084 41.4083L8.66668 42C8.65437 50.5257 11.9216 58.7295 17.7917 64.9125L33.5833 55.7917L8.67084 41.4083ZM34.35 28.1833L58.55 13.0583C53.5126 10.1716 47.8059 8.65733 42 8.66667C39.3667 8.66667 36.8083 8.97084 34.35 9.55V28.1833ZM65.6125 18.475L49.8375 28.3292L75.3167 43.0417C75.465 38.5002 74.6804 33.9766 73.0113 29.7504C71.3422 25.5243 68.824 21.6895 65.6125 18.475ZM58.0458 42.6917V71.225C65.6318 67.051 71.302 60.0962 73.8625 51.825L58.0458 42.6917ZM24.7417 70.525C29.9447 73.68 35.9152 75.3434 42 75.3333C44.6542 75.3333 47.2375 75.025 49.7083 74.4375V56.1042L24.7417 70.5208V70.525ZM42 83.6667C18.9875 83.6667 0.333344 65.0125 0.333344 42C0.333344 18.9875 18.9875 0.333336 42 0.333336C65.0125 0.333336 83.6667 18.9875 83.6667 42C83.6667 65.0125 65.0125 83.6667 42 83.6667Z" fill="#A769F7"/>
</svg>
